<mxfile host="app.diagrams.net" agent="Mozilla/5.0 (Windows NT 10.0; Win64; x64; rv:133.0) Gecko/20100101 Firefox/133.0" version="25.0.3">
  <diagram name="Page-1" id="TltUSp4mH69disy-DRck">
    <mxGraphModel dx="1434" dy="746" grid="1" gridSize="10" guides="1" tooltips="1" connect="1" arrows="1" fold="1" page="1" pageScale="1" pageWidth="827" pageHeight="1169" math="0" shadow="0">
      <root>
        <mxCell id="0" />
        <mxCell id="1" parent="0" />
        <object placeholders="1" c4Name="Client" c4Type="Component" c4Technology="Java/Thymeleaf" c4Description="Interface utilisateur" label="&lt;font style=&quot;font-size: 16px&quot;&gt;&lt;b&gt;%c4Name%&lt;/b&gt;&lt;/font&gt;&lt;div&gt;[%c4Type%: %c4Technology%]&lt;/div&gt;&lt;br&gt;&lt;div&gt;&lt;font style=&quot;font-size: 11px&quot;&gt;%c4Description%&lt;/font&gt;&lt;/div&gt;" id="IzMNL_FGZWPaYZVyqAyt-2">
          <mxCell style="rounded=1;whiteSpace=wrap;html=1;labelBackgroundColor=none;fillColor=#63BEF2;fontColor=#ffffff;align=center;arcSize=6;strokeColor=#2086C9;metaEdit=1;resizable=0;points=[[0.25,0,0],[0.5,0,0],[0.75,0,0],[1,0.25,0],[1,0.5,0],[1,0.75,0],[0.75,1,0],[0.5,1,0],[0.25,1,0],[0,0.75,0],[0,0.5,0],[0,0.25,0]];" parent="1" vertex="1">
            <mxGeometry x="630" y="220" width="240" height="120" as="geometry" />
          </mxCell>
        </object>
        <object placeholders="1" c4Name="java-demo-kafkalike-api" c4Type="ContainerScopeBoundary" c4Application="container" label="&lt;font style=&quot;font-size: 16px&quot;&gt;&lt;b&gt;&lt;div style=&quot;text-align: left&quot;&gt;%c4Name%&lt;/div&gt;&lt;/b&gt;&lt;/font&gt;&lt;div style=&quot;text-align: left&quot;&gt;[%c4Application%]&lt;/div&gt;" id="IzMNL_FGZWPaYZVyqAyt-3">
          <mxCell style="rounded=1;fontSize=11;whiteSpace=wrap;html=1;dashed=1;arcSize=20;fillColor=none;strokeColor=#666666;fontColor=#333333;labelBackgroundColor=none;align=left;verticalAlign=bottom;labelBorderColor=none;spacingTop=0;spacing=10;dashPattern=8 4;metaEdit=1;rotatable=0;perimeter=rectanglePerimeter;noLabel=0;labelPadding=0;allowArrows=0;connectable=0;expand=0;recursiveResize=0;editable=1;pointerEvents=0;absoluteArcSize=1;points=[[0.25,0,0],[0.5,0,0],[0.75,0,0],[1,0.25,0],[1,0.5,0],[1,0.75,0],[0.75,1,0],[0.5,1,0],[0.25,1,0],[0,0.75,0],[0,0.5,0],[0,0.25,0]];" parent="1" vertex="1">
            <mxGeometry x="20" y="180" width="1570" height="620" as="geometry" />
          </mxCell>
        </object>
        <object placeholders="1" c4Name="FormController" c4Type="Component" c4Technology="Spring" c4Description="Gère la donnée des formulaires" label="&lt;font style=&quot;font-size: 16px&quot;&gt;&lt;b&gt;%c4Name%&lt;/b&gt;&lt;/font&gt;&lt;div&gt;[%c4Type%: %c4Technology%]&lt;/div&gt;&lt;br&gt;&lt;div&gt;&lt;font style=&quot;font-size: 11px&quot;&gt;%c4Description%&lt;/font&gt;&lt;/div&gt;" id="IzMNL_FGZWPaYZVyqAyt-12">
          <mxCell style="rounded=1;whiteSpace=wrap;html=1;labelBackgroundColor=none;fillColor=#63BEF2;fontColor=#ffffff;align=center;arcSize=6;strokeColor=#2086C9;metaEdit=1;resizable=0;points=[[0.25,0,0],[0.5,0,0],[0.75,0,0],[1,0.25,0],[1,0.5,0],[1,0.75,0],[0.75,1,0],[0.5,1,0],[0.25,1,0],[0,0.75,0],[0,0.5,0],[0,0.25,0]];" parent="1" vertex="1">
            <mxGeometry x="290" y="220" width="240" height="120" as="geometry" />
          </mxCell>
        </object>
        <mxCell id="IzMNL_FGZWPaYZVyqAyt-13" value="" style="endArrow=classic;html=1;rounded=0;entryX=1;entryY=0.75;entryDx=0;entryDy=0;entryPerimeter=0;dashed=1;exitX=0;exitY=0.75;exitDx=0;exitDy=0;exitPerimeter=0;" parent="1" target="IzMNL_FGZWPaYZVyqAyt-12" edge="1" source="IzMNL_FGZWPaYZVyqAyt-2">
          <mxGeometry relative="1" as="geometry">
            <mxPoint x="590" y="280" as="sourcePoint" />
            <mxPoint x="980" y="400" as="targetPoint" />
          </mxGeometry>
        </mxCell>
        <mxCell id="IzMNL_FGZWPaYZVyqAyt-14" value="Requêtes" style="edgeLabel;resizable=0;html=1;align=center;verticalAlign=middle;" parent="IzMNL_FGZWPaYZVyqAyt-13" connectable="0" vertex="1">
          <mxGeometry relative="1" as="geometry">
            <mxPoint y="-4" as="offset" />
          </mxGeometry>
        </mxCell>
        <object placeholders="1" c4Name="Sender" c4Type="Component" c4Technology="Spring interface" c4Description="Commande la production dans le broker" label="&lt;font style=&quot;font-size: 16px&quot;&gt;&lt;b&gt;%c4Name%&lt;/b&gt;&lt;/font&gt;&lt;div&gt;[%c4Type%: %c4Technology%]&lt;/div&gt;&lt;br&gt;&lt;div&gt;&lt;font style=&quot;font-size: 11px&quot;&gt;%c4Description%&lt;/font&gt;&lt;/div&gt;" id="IzMNL_FGZWPaYZVyqAyt-15">
          <mxCell style="rounded=1;whiteSpace=wrap;html=1;labelBackgroundColor=none;fillColor=#63BEF2;fontColor=#ffffff;align=center;arcSize=6;strokeColor=#2086C9;metaEdit=1;resizable=0;points=[[0.25,0,0],[0.5,0,0],[0.75,0,0],[1,0.25,0],[1,0.5,0],[1,0.75,0],[0.75,1,0],[0.5,1,0],[0.25,1,0],[0,0.75,0],[0,0.5,0],[0,0.25,0]];" parent="1" vertex="1">
            <mxGeometry x="290" y="390" width="240" height="120" as="geometry" />
          </mxCell>
        </object>
        <mxCell id="IzMNL_FGZWPaYZVyqAyt-16" value="" style="endArrow=classic;html=1;rounded=0;entryX=0.5;entryY=0;entryDx=0;entryDy=0;entryPerimeter=0;dashed=1;" parent="1" target="IzMNL_FGZWPaYZVyqAyt-15" edge="1">
          <mxGeometry relative="1" as="geometry">
            <mxPoint x="410" y="340" as="sourcePoint" />
            <mxPoint x="390" y="391" as="targetPoint" />
            <Array as="points">
              <mxPoint x="410" y="370" />
            </Array>
          </mxGeometry>
        </mxCell>
        <mxCell id="IzMNL_FGZWPaYZVyqAyt-17" value="injecte service" style="edgeLabel;resizable=0;html=1;align=center;verticalAlign=middle;" parent="IzMNL_FGZWPaYZVyqAyt-16" connectable="0" vertex="1">
          <mxGeometry relative="1" as="geometry">
            <mxPoint y="-4" as="offset" />
          </mxGeometry>
        </mxCell>
        <object placeholders="1" c4Name="UserTemplate" c4Type="Component" c4Technology="Spring" c4Description="Encapsuleur d&#39;un producer" label="&lt;font style=&quot;font-size: 16px&quot;&gt;&lt;b&gt;%c4Name%&lt;/b&gt;&lt;/font&gt;&lt;div&gt;[%c4Type%: %c4Technology%]&lt;/div&gt;&lt;br&gt;&lt;div&gt;&lt;font style=&quot;font-size: 11px&quot;&gt;%c4Description%&lt;/font&gt;&lt;/div&gt;" id="IzMNL_FGZWPaYZVyqAyt-32">
          <mxCell style="rounded=1;whiteSpace=wrap;html=1;labelBackgroundColor=none;fillColor=#63BEF2;fontColor=#ffffff;align=center;arcSize=6;strokeColor=#2086C9;metaEdit=1;resizable=0;points=[[0.25,0,0],[0.5,0,0],[0.75,0,0],[1,0.25,0],[1,0.5,0],[1,0.75,0],[0.75,1,0],[0.5,1,0],[0.25,1,0],[0,0.75,0],[0,0.5,0],[0,0.25,0]];" parent="1" vertex="1">
            <mxGeometry x="30" y="560" width="240" height="120" as="geometry" />
          </mxCell>
        </object>
        <mxCell id="IzMNL_FGZWPaYZVyqAyt-35" value="" style="endArrow=classic;html=1;rounded=0;entryX=0;entryY=0.25;entryDx=0;entryDy=0;entryPerimeter=0;exitX=1;exitY=0.25;exitDx=0;exitDy=0;exitPerimeter=0;dashed=1;" parent="1" source="IzMNL_FGZWPaYZVyqAyt-12" target="IzMNL_FGZWPaYZVyqAyt-2" edge="1">
          <mxGeometry relative="1" as="geometry">
            <mxPoint x="420" y="180" as="sourcePoint" />
            <mxPoint x="420" y="230" as="targetPoint" />
          </mxGeometry>
        </mxCell>
        <mxCell id="IzMNL_FGZWPaYZVyqAyt-36" value="Redirections" style="edgeLabel;resizable=0;html=1;align=center;verticalAlign=middle;" parent="IzMNL_FGZWPaYZVyqAyt-35" connectable="0" vertex="1">
          <mxGeometry relative="1" as="geometry">
            <mxPoint y="-4" as="offset" />
          </mxGeometry>
        </mxCell>
        <object placeholders="1" c4Name="MessageTemplate" c4Type="Component" c4Technology="Spring" c4Description="Encapsuleur d&#39;un producer" label="&lt;font style=&quot;font-size: 16px&quot;&gt;&lt;b&gt;%c4Name%&lt;/b&gt;&lt;/font&gt;&lt;div&gt;[%c4Type%: %c4Technology%]&lt;/div&gt;&lt;br&gt;&lt;div&gt;&lt;font style=&quot;font-size: 11px&quot;&gt;%c4Description%&lt;/font&gt;&lt;/div&gt;" id="IzMNL_FGZWPaYZVyqAyt-42">
          <mxCell style="rounded=1;whiteSpace=wrap;html=1;labelBackgroundColor=none;fillColor=#63BEF2;fontColor=#ffffff;align=center;arcSize=6;strokeColor=#2086C9;metaEdit=1;resizable=0;points=[[0.25,0,0],[0.5,0,0],[0.75,0,0],[1,0.25,0],[1,0.5,0],[1,0.75,0],[0.75,1,0],[0.5,1,0],[0.25,1,0],[0,0.75,0],[0,0.5,0],[0,0.25,0]];" parent="1" vertex="1">
            <mxGeometry x="294" y="560" width="240" height="120" as="geometry" />
          </mxCell>
        </object>
        <object placeholders="1" c4Name="TicketTemplate" c4Type="Component" c4Technology="Spring" c4Description="Encapsuleur d&#39;un producer" label="&lt;font style=&quot;font-size: 16px&quot;&gt;&lt;b&gt;%c4Name%&lt;/b&gt;&lt;/font&gt;&lt;div&gt;[%c4Type%: %c4Technology%]&lt;/div&gt;&lt;br&gt;&lt;div&gt;&lt;font style=&quot;font-size: 11px&quot;&gt;%c4Description%&lt;/font&gt;&lt;/div&gt;" id="IzMNL_FGZWPaYZVyqAyt-43">
          <mxCell style="rounded=1;whiteSpace=wrap;html=1;labelBackgroundColor=none;fillColor=#63BEF2;fontColor=#ffffff;align=center;arcSize=6;strokeColor=#2086C9;metaEdit=1;resizable=0;points=[[0.25,0,0],[0.5,0,0],[0.75,0,0],[1,0.25,0],[1,0.5,0],[1,0.75,0],[0.75,1,0],[0.5,1,0],[0.25,1,0],[0,0.75,0],[0,0.5,0],[0,0.25,0]];" parent="1" vertex="1">
            <mxGeometry x="560" y="560" width="240" height="120" as="geometry" />
          </mxCell>
        </object>
        <mxCell id="IzMNL_FGZWPaYZVyqAyt-49" value="" style="endArrow=classic;html=1;rounded=0;entryX=0.5;entryY=0;entryDx=0;entryDy=0;entryPerimeter=0;exitX=0.013;exitY=1.008;exitDx=0;exitDy=0;exitPerimeter=0;dashed=1;" parent="1" source="IzMNL_FGZWPaYZVyqAyt-15" target="IzMNL_FGZWPaYZVyqAyt-32" edge="1">
          <mxGeometry relative="1" as="geometry">
            <mxPoint x="130" y="460" as="sourcePoint" />
            <mxPoint x="130" y="410" as="targetPoint" />
          </mxGeometry>
        </mxCell>
        <mxCell id="IzMNL_FGZWPaYZVyqAyt-50" value="Injecte service" style="edgeLabel;resizable=0;html=1;align=center;verticalAlign=middle;" parent="IzMNL_FGZWPaYZVyqAyt-49" connectable="0" vertex="1">
          <mxGeometry relative="1" as="geometry">
            <mxPoint y="-4" as="offset" />
          </mxGeometry>
        </mxCell>
        <mxCell id="IzMNL_FGZWPaYZVyqAyt-52" value="" style="endArrow=classic;html=1;rounded=0;entryX=0.5;entryY=0;entryDx=0;entryDy=0;entryPerimeter=0;dashed=1;" parent="1" target="IzMNL_FGZWPaYZVyqAyt-42" edge="1">
          <mxGeometry relative="1" as="geometry">
            <mxPoint x="414" y="510" as="sourcePoint" />
            <mxPoint x="160" y="570" as="targetPoint" />
          </mxGeometry>
        </mxCell>
        <mxCell id="IzMNL_FGZWPaYZVyqAyt-53" value="Injecte service" style="edgeLabel;resizable=0;html=1;align=center;verticalAlign=middle;" parent="IzMNL_FGZWPaYZVyqAyt-52" connectable="0" vertex="1">
          <mxGeometry relative="1" as="geometry">
            <mxPoint y="-4" as="offset" />
          </mxGeometry>
        </mxCell>
        <mxCell id="IzMNL_FGZWPaYZVyqAyt-54" value="" style="endArrow=classic;html=1;rounded=0;entryX=0.5;entryY=0;entryDx=0;entryDy=0;entryPerimeter=0;exitX=1;exitY=1.017;exitDx=0;exitDy=0;exitPerimeter=0;dashed=1;" parent="1" source="IzMNL_FGZWPaYZVyqAyt-15" target="IzMNL_FGZWPaYZVyqAyt-43" edge="1">
          <mxGeometry relative="1" as="geometry">
            <mxPoint x="313" y="531" as="sourcePoint" />
            <mxPoint x="170" y="580" as="targetPoint" />
          </mxGeometry>
        </mxCell>
        <mxCell id="IzMNL_FGZWPaYZVyqAyt-55" value="Injecte service" style="edgeLabel;resizable=0;html=1;align=center;verticalAlign=middle;" parent="IzMNL_FGZWPaYZVyqAyt-54" connectable="0" vertex="1">
          <mxGeometry relative="1" as="geometry">
            <mxPoint y="-4" as="offset" />
          </mxGeometry>
        </mxCell>
        <mxCell id="IzMNL_FGZWPaYZVyqAyt-56" value="" style="endArrow=classic;html=1;rounded=0;dashed=1;exitX=0.75;exitY=1;exitDx=0;exitDy=0;exitPerimeter=0;entryX=0;entryY=0.75;entryDx=0;entryDy=0;entryPerimeter=0;" parent="1" source="IzMNL_FGZWPaYZVyqAyt-32" target="IzMNL_FGZWPaYZVyqAyt-66" edge="1">
          <mxGeometry relative="1" as="geometry">
            <mxPoint x="160" y="690" as="sourcePoint" />
            <mxPoint x="260" y="830" as="targetPoint" />
          </mxGeometry>
        </mxCell>
        <mxCell id="IzMNL_FGZWPaYZVyqAyt-57" value="produit " style="edgeLabel;resizable=0;html=1;align=center;verticalAlign=middle;" parent="IzMNL_FGZWPaYZVyqAyt-56" connectable="0" vertex="1">
          <mxGeometry relative="1" as="geometry">
            <mxPoint y="-4" as="offset" />
          </mxGeometry>
        </mxCell>
        <mxCell id="IzMNL_FGZWPaYZVyqAyt-62" value="" style="endArrow=classic;html=1;rounded=0;entryX=0;entryY=0.5;entryDx=0;entryDy=0;entryPerimeter=0;dashed=1;exitX=0.5;exitY=1.058;exitDx=0;exitDy=0;exitPerimeter=0;" parent="1" source="IzMNL_FGZWPaYZVyqAyt-42" target="IzMNL_FGZWPaYZVyqAyt-66" edge="1">
          <mxGeometry relative="1" as="geometry">
            <mxPoint x="220" y="690" as="sourcePoint" />
            <mxPoint x="270" y="840" as="targetPoint" />
          </mxGeometry>
        </mxCell>
        <mxCell id="IzMNL_FGZWPaYZVyqAyt-63" value="produit" style="edgeLabel;resizable=0;html=1;align=center;verticalAlign=middle;" parent="IzMNL_FGZWPaYZVyqAyt-62" connectable="0" vertex="1">
          <mxGeometry relative="1" as="geometry">
            <mxPoint y="-4" as="offset" />
          </mxGeometry>
        </mxCell>
        <mxCell id="IzMNL_FGZWPaYZVyqAyt-64" value="" style="endArrow=classic;html=1;rounded=0;entryX=0;entryY=0.25;entryDx=0;entryDy=0;entryPerimeter=0;dashed=1;exitX=0.5;exitY=1;exitDx=0;exitDy=0;exitPerimeter=0;" parent="1" source="IzMNL_FGZWPaYZVyqAyt-43" target="IzMNL_FGZWPaYZVyqAyt-66" edge="1">
          <mxGeometry relative="1" as="geometry">
            <mxPoint x="424" y="697" as="sourcePoint" />
            <mxPoint x="340" y="840" as="targetPoint" />
          </mxGeometry>
        </mxCell>
        <mxCell id="IzMNL_FGZWPaYZVyqAyt-65" value="produit" style="edgeLabel;resizable=0;html=1;align=center;verticalAlign=middle;" parent="IzMNL_FGZWPaYZVyqAyt-64" connectable="0" vertex="1">
          <mxGeometry relative="1" as="geometry">
            <mxPoint y="-4" as="offset" />
          </mxGeometry>
        </mxCell>
        <mxCell id="IzMNL_FGZWPaYZVyqAyt-67" style="edgeStyle=orthogonalEdgeStyle;rounded=0;orthogonalLoop=1;jettySize=auto;html=1;entryX=0.5;entryY=1;entryDx=0;entryDy=0;entryPerimeter=0;" parent="1" target="IzMNL_FGZWPaYZVyqAyt-69" edge="1">
          <mxGeometry relative="1" as="geometry">
            <mxPoint x="1140" y="540" as="targetPoint" />
            <mxPoint x="960" y="900" as="sourcePoint" />
            <Array as="points" />
          </mxGeometry>
        </mxCell>
        <object placeholders="1" c4Type="Broker" c4Container="Message broker" c4Technology="Kafka, Pulsar, Redpanda, RabbitMQ" c4Description="Le message broker sur lequel est branché java-demo-kafkalike-api" label="&lt;font style=&quot;font-size: 16px&quot;&gt;&lt;b&gt;%c4Type%&lt;/b&gt;&lt;/font&gt;&lt;div&gt;[%c4Container%:&amp;nbsp;%c4Technology%]&lt;/div&gt;&lt;br&gt;&lt;div&gt;&lt;font style=&quot;font-size: 11px&quot;&gt;&lt;font color=&quot;#E6E6E6&quot;&gt;%c4Description%&lt;/font&gt;&lt;/div&gt;" id="IzMNL_FGZWPaYZVyqAyt-66">
          <mxCell style="shape=cylinder3;size=15;direction=south;whiteSpace=wrap;html=1;boundedLbl=1;rounded=0;labelBackgroundColor=none;fillColor=#23A2D9;fontSize=12;fontColor=#ffffff;align=center;strokeColor=#0E7DAD;metaEdit=1;points=[[0.5,0,0],[1,0.25,0],[1,0.5,0],[1,0.75,0],[0.5,1,0],[0,0.75,0],[0,0.5,0],[0,0.25,0]];resizable=0;" parent="1" vertex="1">
            <mxGeometry x="294" y="840" width="240" height="120" as="geometry" />
          </mxCell>
        </object>
        <object placeholders="1" c4Type="Broker" c4Container="Message broker" c4Technology="Kafka, Pulsar, Redpanda, RabbitMQ" c4Description="Le message broker sur lequel est branché java-demo-kafkalike-api" label="&lt;font style=&quot;font-size: 16px&quot;&gt;&lt;b&gt;%c4Type%&lt;/b&gt;&lt;/font&gt;&lt;div&gt;[%c4Container%:&amp;nbsp;%c4Technology%]&lt;/div&gt;&lt;br&gt;&lt;div&gt;&lt;font style=&quot;font-size: 11px&quot;&gt;&lt;font color=&quot;#E6E6E6&quot;&gt;%c4Description%&lt;/font&gt;&lt;/div&gt;" id="IzMNL_FGZWPaYZVyqAyt-69">
          <mxCell style="shape=cylinder3;size=15;direction=south;whiteSpace=wrap;html=1;boundedLbl=1;rounded=0;labelBackgroundColor=none;fillColor=#23A2D9;fontSize=12;fontColor=#ffffff;align=center;strokeColor=#0E7DAD;metaEdit=1;points=[[0.5,0,0],[1,0.25,0],[1,0.5,0],[1,0.75,0],[0.5,1,0],[0,0.75,0],[0,0.5,0],[0,0.25,0]];resizable=0;rotation=0;" parent="1" vertex="1">
            <mxGeometry x="1050" y="840" width="240" height="120" as="geometry" />
          </mxCell>
        </object>
        <object placeholders="1" c4Name="Ticket listener" c4Type="Component" c4Technology="Spring " c4Description="Encapsulateur d&#39;un consumer" label="&lt;font style=&quot;font-size: 16px&quot;&gt;&lt;b&gt;%c4Name%&lt;/b&gt;&lt;/font&gt;&lt;div&gt;[%c4Type%: %c4Technology%]&lt;/div&gt;&lt;br&gt;&lt;div&gt;&lt;font style=&quot;font-size: 11px&quot;&gt;%c4Description%&lt;/font&gt;&lt;/div&gt;" id="IzMNL_FGZWPaYZVyqAyt-70">
          <mxCell style="rounded=1;whiteSpace=wrap;html=1;labelBackgroundColor=none;fillColor=#63BEF2;fontColor=#ffffff;align=center;arcSize=6;strokeColor=#2086C9;metaEdit=1;resizable=0;points=[[0.25,0,0],[0.5,0,0],[0.75,0,0],[1,0.25,0],[1,0.5,0],[1,0.75,0],[0.75,1,0],[0.5,1,0],[0.25,1,0],[0,0.75,0],[0,0.5,0],[0,0.25,0]];" parent="1" vertex="1">
            <mxGeometry x="1195.55" y="570" width="240" height="120" as="geometry" />
          </mxCell>
        </object>
        <object placeholders="1" c4Name="Message listener" c4Type="Component" c4Technology="Spring" c4Description="Encapsulateur d&#39;un consumer" label="&lt;font style=&quot;font-size: 16px&quot;&gt;&lt;b&gt;%c4Name%&lt;/b&gt;&lt;/font&gt;&lt;div&gt;[%c4Type%: %c4Technology%]&lt;/div&gt;&lt;br&gt;&lt;div&gt;&lt;font style=&quot;font-size: 11px&quot;&gt;%c4Description%&lt;/font&gt;&lt;/div&gt;" id="IzMNL_FGZWPaYZVyqAyt-73">
          <mxCell style="rounded=1;whiteSpace=wrap;html=1;labelBackgroundColor=none;fillColor=#63BEF2;fontColor=#ffffff;align=center;arcSize=6;strokeColor=#2086C9;metaEdit=1;resizable=0;points=[[0.25,0,0],[0.5,0,0],[0.75,0,0],[1,0.25,0],[1,0.5,0],[1,0.75,0],[0.75,1,0],[0.5,1,0],[0.25,1,0],[0,0.75,0],[0,0.5,0],[0,0.25,0]];" parent="1" vertex="1">
            <mxGeometry x="1195.55" y="430" width="240" height="120" as="geometry" />
          </mxCell>
        </object>
        <object placeholders="1" c4Name="User listener" c4Type="Component" c4Technology="Spring" c4Description="Encapsulateur d&#39;un consumer" label="&lt;font style=&quot;font-size: 16px&quot;&gt;&lt;b&gt;%c4Name%&lt;/b&gt;&lt;/font&gt;&lt;div&gt;[%c4Type%: %c4Technology%]&lt;/div&gt;&lt;br&gt;&lt;div&gt;&lt;font style=&quot;font-size: 11px&quot;&gt;%c4Description%&lt;/font&gt;&lt;/div&gt;" id="IzMNL_FGZWPaYZVyqAyt-74">
          <mxCell style="rounded=1;whiteSpace=wrap;html=1;labelBackgroundColor=none;fillColor=#63BEF2;fontColor=#ffffff;align=center;arcSize=6;strokeColor=#2086C9;metaEdit=1;resizable=0;points=[[0.25,0,0],[0.5,0,0],[0.75,0,0],[1,0.25,0],[1,0.5,0],[1,0.75,0],[0.75,1,0],[0.5,1,0],[0.25,1,0],[0,0.75,0],[0,0.5,0],[0,0.25,0]];" parent="1" vertex="1">
            <mxGeometry x="850" y="570" width="240" height="120" as="geometry" />
          </mxCell>
        </object>
        <mxCell id="IzMNL_FGZWPaYZVyqAyt-75" value="" style="endArrow=classic;html=1;rounded=0;entryX=0;entryY=0.75;entryDx=0;entryDy=0;entryPerimeter=0;dashed=1;exitX=0.5;exitY=1;exitDx=0;exitDy=0;exitPerimeter=0;" parent="1" source="IzMNL_FGZWPaYZVyqAyt-74" target="IzMNL_FGZWPaYZVyqAyt-69" edge="1">
          <mxGeometry relative="1" as="geometry">
            <mxPoint x="690" y="690" as="sourcePoint" />
            <mxPoint x="484" y="850" as="targetPoint" />
          </mxGeometry>
        </mxCell>
        <mxCell id="IzMNL_FGZWPaYZVyqAyt-76" value="consomme" style="edgeLabel;resizable=0;html=1;align=center;verticalAlign=middle;" parent="IzMNL_FGZWPaYZVyqAyt-75" connectable="0" vertex="1">
          <mxGeometry relative="1" as="geometry">
            <mxPoint x="-10" y="-5" as="offset" />
          </mxGeometry>
        </mxCell>
        <mxCell id="IzMNL_FGZWPaYZVyqAyt-78" value="" style="endArrow=classic;html=1;rounded=0;entryX=0.05;entryY=0.546;entryDx=0;entryDy=0;entryPerimeter=0;dashed=1;exitX=0;exitY=0.5;exitDx=0;exitDy=0;exitPerimeter=0;" parent="1" source="IzMNL_FGZWPaYZVyqAyt-73" target="IzMNL_FGZWPaYZVyqAyt-69" edge="1">
          <mxGeometry relative="1" as="geometry">
            <mxPoint x="930" y="480" as="sourcePoint" />
            <mxPoint x="1090" y="490" as="targetPoint" />
          </mxGeometry>
        </mxCell>
        <mxCell id="IzMNL_FGZWPaYZVyqAyt-79" value="consomment" style="edgeLabel;resizable=0;html=1;align=center;verticalAlign=middle;" parent="IzMNL_FGZWPaYZVyqAyt-78" connectable="0" vertex="1">
          <mxGeometry relative="1" as="geometry">
            <mxPoint x="-17" y="72" as="offset" />
          </mxGeometry>
        </mxCell>
        <mxCell id="IzMNL_FGZWPaYZVyqAyt-80" value="" style="endArrow=classic;html=1;rounded=0;entryX=0;entryY=0.25;entryDx=0;entryDy=0;entryPerimeter=0;dashed=1;exitX=0.5;exitY=1;exitDx=0;exitDy=0;exitPerimeter=0;" parent="1" source="IzMNL_FGZWPaYZVyqAyt-70" target="IzMNL_FGZWPaYZVyqAyt-69" edge="1">
          <mxGeometry relative="1" as="geometry">
            <mxPoint x="930" y="480" as="sourcePoint" />
            <mxPoint x="1090" y="370" as="targetPoint" />
          </mxGeometry>
        </mxCell>
        <mxCell id="IzMNL_FGZWPaYZVyqAyt-81" value="consomme" style="edgeLabel;resizable=0;html=1;align=center;verticalAlign=middle;" parent="IzMNL_FGZWPaYZVyqAyt-80" connectable="0" vertex="1">
          <mxGeometry relative="1" as="geometry">
            <mxPoint x="-10" y="-5" as="offset" />
          </mxGeometry>
        </mxCell>
        <object placeholders="1" c4Name="Transmission listener" c4Type="Component" c4Technology="Spring" c4Description="Encapsulateur d&#39;un consumer" label="&lt;font style=&quot;font-size: 16px&quot;&gt;&lt;b&gt;%c4Name%&lt;/b&gt;&lt;/font&gt;&lt;div&gt;[%c4Type%: %c4Technology%]&lt;/div&gt;&lt;br&gt;&lt;div&gt;&lt;font style=&quot;font-size: 11px&quot;&gt;%c4Description%&lt;/font&gt;&lt;/div&gt;" id="IzMNL_FGZWPaYZVyqAyt-82">
          <mxCell style="rounded=1;whiteSpace=wrap;html=1;labelBackgroundColor=none;fillColor=#f5f5f5;align=center;arcSize=6;strokeColor=#666666;metaEdit=1;resizable=0;points=[[0.25,0,0],[0.5,0,0],[0.75,0,0],[1,0.25,0],[1,0.5,0],[1,0.75,0],[0.75,1,0],[0.5,1,0],[0.25,1,0],[0,0.75,0],[0,0.5,0],[0,0.25,0]];fontColor=#333333;" parent="1" vertex="1">
            <mxGeometry x="850" y="430" width="240" height="120" as="geometry" />
          </mxCell>
        </object>
        <mxCell id="IzMNL_FGZWPaYZVyqAyt-83" value="" style="endArrow=classic;html=1;rounded=0;dashed=1;exitX=1;exitY=0.5;exitDx=0;exitDy=0;exitPerimeter=0;" parent="1" source="IzMNL_FGZWPaYZVyqAyt-82" target="IzMNL_FGZWPaYZVyqAyt-69" edge="1">
          <mxGeometry relative="1" as="geometry">
            <mxPoint x="910" y="360" as="sourcePoint" />
            <mxPoint x="1090" y="370" as="targetPoint" />
          </mxGeometry>
        </mxCell>
        <mxCell id="IzMNL_FGZWPaYZVyqAyt-88" value="" style="edgeStyle=orthogonalEdgeStyle;rounded=0;orthogonalLoop=1;jettySize=auto;html=1;entryX=0;entryY=0.5;entryDx=0;entryDy=0;entryPerimeter=0;" parent="1" source="IzMNL_FGZWPaYZVyqAyt-66" target="IzMNL_FGZWPaYZVyqAyt-87" edge="1">
          <mxGeometry relative="1" as="geometry">
            <mxPoint x="1140" y="960" as="targetPoint" />
            <mxPoint x="534" y="900" as="sourcePoint" />
            <Array as="points">
              <mxPoint x="960" y="900" />
              <mxPoint x="960" y="900" />
            </Array>
          </mxGeometry>
        </mxCell>
        <object placeholders="1" c4Name="StreamProcessor" c4Type="Component" c4Technology="Technologies à déterminer" c4Description="Manipule les streams pour générer le flux de log de transmissions" label="&lt;font style=&quot;font-size: 16px&quot;&gt;&lt;b&gt;%c4Name%&lt;/b&gt;&lt;/font&gt;&lt;div&gt;[%c4Type%: %c4Technology%]&lt;/div&gt;&lt;br&gt;&lt;div&gt;&lt;font style=&quot;font-size: 11px&quot;&gt;%c4Description%&lt;/font&gt;&lt;/div&gt;" id="IzMNL_FGZWPaYZVyqAyt-87">
          <mxCell style="rounded=1;whiteSpace=wrap;html=1;labelBackgroundColor=none;fillColor=#f5f5f5;fontColor=#333333;align=center;arcSize=6;strokeColor=#666666;metaEdit=1;resizable=0;points=[[0.25,0,0],[0.5,0,0],[0.75,0,0],[1,0.25,0],[1,0.5,0],[1,0.75,0],[0.75,1,0],[0.5,1,0],[0.25,1,0],[0,0.75,0],[0,0.5,0],[0,0.25,0]];" parent="1" vertex="1">
            <mxGeometry x="610" y="840" width="240" height="120" as="geometry" />
          </mxCell>
        </object>
        <mxCell id="IzMNL_FGZWPaYZVyqAyt-90" value="à implémenter" style="rounded=1;whiteSpace=wrap;html=1;fillColor=#f5f5f5;fontColor=#333333;strokeColor=#666666;" parent="1" vertex="1">
          <mxGeometry x="57.5" y="270" width="90" height="40" as="geometry" />
        </mxCell>
        <mxCell id="IzMNL_FGZWPaYZVyqAyt-91" value="" style="rounded=0;whiteSpace=wrap;html=1;fillColor=none;dashed=1;dashPattern=1 4;" parent="1" vertex="1">
          <mxGeometry x="38.75" y="230" width="127.5" height="218.75" as="geometry" />
        </mxCell>
        <mxCell id="IzMNL_FGZWPaYZVyqAyt-92" value="Légende" style="text;html=1;align=center;verticalAlign=middle;resizable=0;points=[];autosize=1;strokeColor=none;fillColor=none;" parent="1" vertex="1">
          <mxGeometry x="57.5" y="230" width="70" height="30" as="geometry" />
        </mxCell>
        <mxCell id="hWq3dMdy4ywjI1EbWBCK-2" value="Component" style="rounded=1;whiteSpace=wrap;html=1;fillColor=#63bef2;strokeColor=#6c8ebf;" vertex="1" parent="1">
          <mxGeometry x="57.5" y="330" width="90" height="40" as="geometry" />
        </mxCell>
        <mxCell id="hWq3dMdy4ywjI1EbWBCK-7" value="bus container" style="shape=dataStorage;whiteSpace=wrap;html=1;fixedSize=1;size=5;fillColor=#63bef2;" vertex="1" parent="1">
          <mxGeometry x="57.5" y="383.75" width="85" height="52.5" as="geometry" />
        </mxCell>
        <mxCell id="hWq3dMdy4ywjI1EbWBCK-8" value="" style="ellipse;whiteSpace=wrap;html=1;fillColor=#63bef2;" vertex="1" parent="1">
          <mxGeometry x="137.5" y="383.75" width="10" height="52.5" as="geometry" />
        </mxCell>
      </root>
    </mxGraphModel>
  </diagram>
</mxfile>
